<?xml version="1.0" encoding="UTF-8" standalone="no"?>
<svg
   xmlns:dc="http://purl.org/dc/elements/1.1/"
   xmlns:cc="http://creativecommons.org/ns#"
   xmlns:rdf="http://www.w3.org/1999/02/22-rdf-syntax-ns#"
   xmlns:svg="http://www.w3.org/2000/svg"
   xmlns="http://www.w3.org/2000/svg"
   xmlns:xlink="http://www.w3.org/1999/xlink"
   xmlns:sodipodi="http://sodipodi.sourceforge.net/DTD/sodipodi-0.dtd"
   xmlns:inkscape="http://www.inkscape.org/namespaces/inkscape"
   width="125.893"
   height="110.063"
   viewBox="0 0 33.309 29.121"
   version="1.1"
   id="svg121"
   sodipodi:docname="hole-optimized.svg"
   inkscape:export-filename="C:\Users\P50\Pictures\hole.png"
   inkscape:export-xdpi="1536"
   inkscape:export-ydpi="1536"
   inkscape:version="0.92.4 (5da689c313, 2019-01-14)">
  <metadata
     id="metadata125">
    <rdf:RDF>
      <cc:Work
         rdf:about="">
        <dc:format>image/svg+xml</dc:format>
        <dc:type
           rdf:resource="http://purl.org/dc/dcmitype/StillImage" />
      </cc:Work>
    </rdf:RDF>
  </metadata>
  <sodipodi:namedview
     pagecolor="#ffffff"
     bordercolor="#666666"
     borderopacity="1"
     objecttolerance="10"
     gridtolerance="10"
     guidetolerance="10"
     inkscape:pageopacity="0"
     inkscape:pageshadow="2"
     inkscape:window-width="716"
     inkscape:window-height="480"
     id="namedview123"
     showgrid="false"
     inkscape:zoom="2.1442264"
     inkscape:cx="62.946499"
     inkscape:cy="55.031502"
     inkscape:window-x="0"
     inkscape:window-y="0"
     inkscape:window-maximized="0"
     inkscape:current-layer="svg121" />
  <defs
     id="defs87">
    <pattern
       xlink:href="#a"
       id="h"
       patternTransform="matrix(.26458 0 0 .26458 51.154 203.403)" />
    <pattern
       patternUnits="userSpaceOnUse"
       width="125.893"
       height="110.063"
       patternTransform="matrix(.26458 0 0 .26458 75.572 166.212)"
       id="a">
      <g
         transform="matrix(3.77953 0 0 3.77953 -359.478 -574.855)"
         id="g37">
        <path
           d="M95.112 166.673v-14.529h33.309V181.201H95.112z"
           fill="#cecfd1"
           stroke-width=".047"
           id="path3" />
        <g
           transform="translate(-65.457 -.992)"
           id="g27">
          <circle
             r="14.552"
             cy="167.642"
             cx="177.2"
             stroke-width=".265"
             id="circle5" />
          <g
             clip-path="url(#b)"
             transform="translate(65.59 .825)"
             fill="none"
             stroke="#1a1a1a"
             stroke-width=".597"
             id="g25">
            <path
               d="M114.914 169.392l-3.313 1.902-3.304-1.918.009-3.82 3.313-1.903 3.304 1.918zM111.591 175.115l-3.313 1.902-3.304-1.918.009-3.821 3.313-1.902 3.304 1.918zM121.504 180.87l-3.314 1.903-3.304-1.919.009-3.82 3.313-1.903 3.305 1.919z"
               id="path7" />
            <path
               d="M114.886 180.854l-3.314 1.902-3.304-1.918.01-3.82 3.313-1.903 3.304 1.918zM124.826 175.148l-3.313 1.902-3.304-1.919.009-3.82 3.313-1.903 3.304 1.919z"
               id="path9" />
            <path
               d="M118.209 175.131l-3.314 1.902-3.304-1.918.01-3.82 3.313-1.903 3.304 1.919zM121.532 169.408l-3.314 1.903-3.304-1.919.01-3.82 3.313-1.903 3.304 1.919zM108.268 180.838l-3.313 1.902-3.304-1.918.009-3.821 3.313-1.902 3.304 1.918z"
               id="path11" />
            <path
               d="M104.974 175.099L101.66 177l-3.304-1.919.01-3.82 3.313-1.903 3.304 1.919z"
               id="path13" />
            <path
               d="M108.297 169.376l-3.314 1.902-3.304-1.919.009-3.82 3.313-1.902 3.305 1.918z"
               id="path15" />
            <path
               d="M101.679 169.36l-3.314 1.902-3.304-1.919.01-3.82 3.313-1.903 3.304 1.919zM111.62 163.653l-3.314 1.902-3.304-1.918.009-3.821 3.313-1.902 3.305 1.918zM105.002 163.637l-3.314 1.902-3.304-1.919.01-3.82 3.313-1.903 3.304 1.919z"
               id="path17" />
            <path
               d="M108.325 157.914l-3.314 1.902-3.304-1.919.01-3.82 3.313-1.902 3.304 1.918z"
               id="path19" />
            <path
               d="M114.942 157.93l-3.313 1.902-3.304-1.918.009-3.82 3.313-1.903 3.304 1.918zM124.855 163.686l-3.314 1.902-3.304-1.919.01-3.82 3.313-1.903 3.304 1.919z"
               id="path21" />
            <path
               d="M118.237 163.67l-3.313 1.901-3.304-1.918.009-3.82 3.313-1.903 3.304 1.919zM121.56 157.946l-3.313 1.903-3.305-1.919.01-3.82 3.313-1.903 3.304 1.919zM128.15 169.425l-3.314 1.902-3.304-1.919.009-3.82 3.313-1.902 3.304 1.918z"
               id="path23" />
          </g>
        </g>
        <g
           fill="#cecfd1"
           stroke-width=".714"
           id="g31">
          <path
             transform="matrix(.26458 0 0 .26458 .141 .046)"
             d="M358.945 629.682v-54.821l27.768.032c23.71.028 27.4.1 25.25.49-3.82.694-8.727 2.19-12.212 3.723-16.31 7.178-27.981 21.508-31.974 39.261-.671 2.982-.778 4.54-.778 11.315 0 6.782.106 8.332.78 11.327 2.376 10.565 7.057 19.28 14.461 26.924 7.83 8.082 17.388 13.38 28.313 15.692l3.928.832-27.768.023-27.768.024zM431.624 683.932c4.138-.735 10.203-2.72 14.107-4.619 16.722-8.132 28.292-24.15 30.745-42.563.604-4.535.218-14.391-.725-18.496-2.435-10.6-6.962-19.12-14.101-26.54-8.8-9.145-19.336-14.678-31.633-16.615-.491-.078 11.602-.163 26.875-.19l27.768-.048v109.643l-27.947-.032c-25.312-.03-27.677-.08-25.089-.54z"
             id="path29" />
        </g>
        <circle
           cx="144.009"
           cy="236.335"
           r="14.552"
           clip-path="url(#c)"
           transform="translate(-32.266 -69.752)"
           fill="url(#d)"
           stroke-width=".265"
           id="circle33" />
        <circle
           cx="111.805"
           cy="166.665"
           r="14.553"
           fill="url(#e)"
           stroke-width=".134"
           id="circle35" />
      </g>
    </pattern>
    <clipPath
       clipPathUnits="userSpaceOnUse"
       id="b">
      <circle
         cx="111.61"
         cy="166.817"
         r="14.552"
         stroke-width=".265"
         id="circle40" />
    </clipPath>
    <radialGradient
       xlink:href="#f"
       id="d"
       gradientUnits="userSpaceOnUse"
       gradientTransform="matrix(1.18853 .55798 -.41014 .8736 95.93 6.419)"
       cx="104.898"
       cy="194.813"
       fx="104.898"
       fy="194.813"
       r="14.552" />
    <linearGradient
       id="f">
      <stop
         offset="0"
         stop-color="#f0f0f0"
         id="stop44" />
      <stop
         offset=".463"
         stop-color="#acacae"
         id="stop46" />
      <stop
         offset=".632"
         stop-color="#8e8f91"
         id="stop48" />
      <stop
         offset=".729"
         stop-color="#6d6e70"
         id="stop50" />
      <stop
         offset=".967"
         stop-color="#515254"
         id="stop52" />
      <stop
         offset="1"
         stop-color="#515254"
         id="stop54" />
    </linearGradient>
    <clipPath
       clipPathUnits="userSpaceOnUse"
       id="c">
      <path
         d="M142.853 250.813a14.744 14.744 0 0 1-5.812-1.741c-.72-.398-1.927-1.208-1.876-1.26.011-.01.167.064.346.167 1.069.613 2.436.919 3.417.765 1.652-.259 2.788-1.371 3.276-3.21.144-.54.147-.572.149-1.66.002-1.039-.007-1.15-.13-1.725a12 12 0 0 0-1.474-3.66c-1.376-2.222-3.392-3.794-5.432-4.234-.549-.118-1.491-.109-1.973.02-.702.188-1.272.534-1.8 1.092-.552.586-.911 1.33-1.125 2.329-.136.636-.148 1.984-.024 2.705.115.663.323 1.436.548 2.034.106.28.182.52.17.532-.026.025-.336-.632-.555-1.173-1.741-4.312-1.319-9.232 1.13-13.134 1.394-2.224 3.389-4.066 5.66-5.229a13.718 13.718 0 0 1 2.902-1.129c.797-.22.908-.204.217.032a9.28 9.28 0 0 0-1.992.969c-.58.381-1.433 1.243-1.734 1.75-1.682 2.841.437 6.027 4.67 7.024.931.219 1.528.285 2.576.286 1.814.002 3.208-.3 4.653-1.007 2.066-1.011 3.238-2.56 3.236-4.275 0-2.038-1.616-3.818-4.322-4.763-.665-.232-.347-.193.541.066a14.562 14.562 0 0 1 9.711 9.368c.28.84.453 1.567.605 2.53.137.87.147 3.118.018 3.993-.17 1.147-.485 2.358-.86 3.305-.267.675-.633 1.463-.665 1.43-.013-.013.01-.106.054-.206.304-.703.624-1.892.733-2.731.072-.55.031-1.967-.07-2.413-.412-1.82-1.421-2.985-2.933-3.383-.484-.128-1.431-.139-1.96-.023-1.345.294-2.539.976-3.726 2.13a11.354 11.354 0 0 0-2.651 3.986c-1.227 3.094-.81 6.242 1.011 7.637 1.245.954 2.934 1.028 4.699.208a7.74 7.74 0 0 0 .63-.328c.349-.214.323-.138-.045.133-.94.695-2.322 1.456-3.4 1.873-1.973.763-4.254 1.091-6.393.92z"
         fill="red"
         stroke-width=".047"
         id="path57" />
    </clipPath>
    <radialGradient
       xlink:href="#g"
       id="e"
       gradientUnits="userSpaceOnUse"
       gradientTransform="translate(18.066 -8.157) scale(1.00577)"
       cx="93.201"
       cy="173.818"
       fx="93.201"
       fy="173.818"
       r="14.47" />
    <linearGradient
       id="g">
      <stop
         offset="0"
         stop-opacity="0"
         id="stop61" />
      <stop
         offset=".751"
         stop-color="#626365"
         stop-opacity=".125"
         id="stop63" />
      <stop
         offset="1"
         stop-color="#494a4c"
         id="stop65" />
    </linearGradient>
    <clipPath
       clipPathUnits="userSpaceOnUse"
       id="j">
      <circle
         cx="111.61"
         cy="166.817"
         r="14.552"
         stroke-width=".265"
         id="circle68" />
    </clipPath>
    <clipPath
       clipPathUnits="userSpaceOnUse"
       id="k">
      <path
         d="M103.85 162.977a14.744 14.744 0 0 1-5.81-1.741c-.72-.398-1.928-1.208-1.877-1.26.011-.01.167.064.346.167 1.069.612 2.436.919 3.417.765 1.652-.259 2.788-1.372 3.276-3.21.144-.54.147-.572.148-1.66.002-1.04-.007-1.15-.129-1.725a12 12 0 0 0-1.474-3.66c-1.376-2.222-3.392-3.794-5.432-4.234-.549-.118-1.491-.109-1.973.02-.702.187-1.272.534-1.8 1.092-.552.586-.911 1.33-1.125 2.329-.136.636-.148 1.984-.024 2.705.115.663.323 1.436.548 2.033.105.28.182.52.17.533-.026.025-.336-.633-.555-1.173-1.742-4.313-1.319-9.232 1.13-13.134 1.394-2.224 3.389-4.067 5.66-5.229a13.718 13.718 0 0 1 2.902-1.129c.797-.22.908-.204.217.032a9.28 9.28 0 0 0-1.992.969c-.58.381-1.433 1.243-1.734 1.75-1.682 2.84.437 6.027 4.67 7.024.931.219 1.528.285 2.575.286 1.815.002 3.21-.3 4.654-1.008 2.065-1.01 3.238-2.559 3.236-4.274 0-2.038-1.616-3.818-4.322-4.763-.665-.232-.347-.193.541.066a14.562 14.562 0 0 1 9.711 9.368c.28.84.453 1.567.605 2.53.137.87.147 3.118.018 3.992-.17 1.147-.485 2.359-.86 3.306-.267.675-.633 1.463-.665 1.43-.013-.013.01-.106.054-.207.304-.702.624-1.891.733-2.73.072-.55.031-1.967-.07-2.413-.412-1.82-1.421-2.985-2.933-3.384-.484-.127-1.432-.138-1.96-.022-1.345.294-2.539.976-3.726 2.13a11.354 11.354 0 0 0-2.651 3.986c-1.227 3.094-.81 6.242 1.011 7.637 1.245.953 2.934 1.028 4.699.208.218-.101.502-.25.63-.329.348-.214.323-.137-.045.134-.94.695-2.323 1.456-3.4 1.873-1.973.763-4.254 1.09-6.394.92z"
         fill="red"
         stroke-width=".047"
         id="path71" />
    </clipPath>
    <radialGradient
       xlink:href="#i"
       id="l"
       gradientUnits="userSpaceOnUse"
       gradientTransform="matrix(.97256 .76088 -.78077 .99799 274.125 -125.816)"
       cx="25.115"
       cy="254.315"
       fx="25.115"
       fy="254.315"
       r="14.552" />
    <linearGradient
       id="i">
      <stop
         offset="0"
         stop-color="#eff0f2"
         id="stop75" />
      <stop
         offset=".384"
         stop-color="#acacae"
         id="stop77" />
      <stop
         offset=".584"
         stop-color="#8e8f91"
         id="stop79" />
      <stop
         offset=".773"
         stop-color="#6d6e70"
         id="stop81" />
      <stop
         offset="1"
         stop-color="#515254"
         id="stop83" />
    </linearGradient>
    <radialGradient
       xlink:href="#g"
       id="m"
       gradientUnits="userSpaceOnUse"
       gradientTransform="translate(11.261 -26.321) scale(1.00577)"
       cx="93.201"
       cy="173.818"
       fx="93.201"
       fy="173.818"
       r="14.47" />
  </defs>
  <path
     d="M0 14.56V.032h33.309V29.089H0z"
     fill="#cecfd1"
     id="path89" />
  <g
     transform="translate(-88.345 -133.94)"
     id="g113">
    <circle
       cx="105"
       cy="148.5"
       r="14.552"
       id="circle91" />
    <g
       transform="translate(-6.61 -18.317)"
       clip-path="url(#j)"
       fill="none"
       stroke="#1a1a1a"
       stroke-width=".597"
       id="g111">
      <path
         d="M114.914 169.392l-3.313 1.902-3.304-1.918.009-3.82 3.313-1.903 3.304 1.918zM111.591 175.115l-3.313 1.902-3.304-1.918.009-3.821 3.313-1.902 3.304 1.918zM121.504 180.87l-3.314 1.903-3.304-1.919.009-3.82 3.313-1.903 3.305 1.919z"
         id="path93" />
      <path
         d="M114.886 180.854l-3.314 1.902-3.304-1.918.01-3.82 3.313-1.903 3.304 1.918zM124.826 175.148l-3.313 1.902-3.304-1.919.009-3.82 3.313-1.903 3.304 1.919z"
         id="path95" />
      <path
         d="M118.209 175.131l-3.314 1.902-3.304-1.918.01-3.82 3.313-1.903 3.304 1.919zM121.532 169.408l-3.314 1.903-3.304-1.919.01-3.82 3.313-1.903 3.304 1.919zM108.268 180.838l-3.313 1.902-3.304-1.918.009-3.821 3.313-1.902 3.304 1.918z"
         id="path97" />
      <path
         d="M104.974 175.099L101.66 177l-3.304-1.919.01-3.82 3.313-1.903 3.304 1.919z"
         id="path99" />
      <path
         d="M108.297 169.376l-3.314 1.902-3.304-1.919.009-3.82 3.313-1.902 3.305 1.918z"
         id="path101" />
      <path
         d="M101.679 169.36l-3.314 1.902-3.304-1.919.01-3.82 3.313-1.903 3.304 1.919zM111.62 163.653l-3.314 1.902-3.304-1.918.009-3.821 3.313-1.902 3.305 1.918zM105.002 163.637l-3.314 1.902-3.304-1.919.01-3.82 3.313-1.903 3.304 1.919z"
         id="path103" />
      <path
         d="M108.325 157.914l-3.314 1.902-3.304-1.919.01-3.82 3.313-1.902 3.304 1.918z"
         id="path105" />
      <path
         d="M114.942 157.93l-3.313 1.902-3.304-1.918.009-3.82 3.313-1.903 3.304 1.918zM124.855 163.686l-3.314 1.902-3.304-1.919.01-3.82 3.313-1.903 3.304 1.919z"
         id="path107" />
      <path
         d="M118.237 163.67l-3.313 1.901-3.304-1.918.009-3.82 3.313-1.903 3.304 1.919zM121.56 157.946l-3.313 1.903-3.305-1.919.01-3.82 3.313-1.903 3.304 1.919zM128.15 169.425l-3.314 1.902-3.304-1.919.009-3.82 3.313-1.902 3.304 1.918z"
         id="path109" />
    </g>
  </g>
  <g
     transform="translate(-88.364 -133.947)"
     clip-path="url(#k)"
     id="g119">
    <circle
       cx="105"
       cy="148.5"
       r="14.552"
       fill="url(#l)"
       id="circle115" />
    <circle
       cx="105"
       cy="148.5"
       r="14.553"
       fill="url(#m)"
       id="circle117" />
  </g>
</svg>
