<svg xmlns="http://www.w3.org/2000/svg" xmlns:xlink="http://www.w3.org/1999/xlink" width="251.798" height="220.126" viewBox="0 0 66.621 58.241"><defs><pattern patternUnits="userSpaceOnUse" width="125.893" height="110.063" patternTransform="translate(75.572 166.212) scale(.26458)" id="a"><g transform="translate(-359.478 -574.855) scale(3.77953)"><path d="M95.112 166.673v-14.529h33.309v29.057H95.112z" fill="#cecfd1" stroke-width=".047"/><g transform="translate(-65.457 -.992)"><circle r="14.552" cy="167.642" cx="177.2" stroke-width=".265"/><g clip-path="url(#b)" transform="translate(65.59 .825)" fill="none" stroke="#1a1a1a" stroke-width=".597"><path d="M114.914 169.392l-3.313 1.902-3.304-1.918.009-3.82 3.313-1.903 3.304 1.918zm-3.323 5.723l-3.313 1.902-3.304-1.918.009-3.821 3.313-1.902 3.304 1.918zm9.913 5.755l-3.314 1.903-3.304-1.919.009-3.82 3.313-1.903 3.305 1.919z"/><path d="M114.886 180.854l-3.314 1.902-3.304-1.918.01-3.82 3.313-1.903 3.304 1.918zm9.94-5.706l-3.313 1.902-3.304-1.919.009-3.82 3.313-1.903 3.304 1.919z"/><path d="M118.209 175.131l-3.314 1.902-3.304-1.918.01-3.82 3.313-1.903 3.304 1.919zm3.323-5.723l-3.314 1.903-3.304-1.919.01-3.82 3.313-1.903 3.304 1.919zm-13.264 11.43l-3.313 1.902-3.304-1.918.009-3.821 3.313-1.902 3.304 1.918z"/><path d="M104.974 175.099L101.66 177l-3.304-1.919.01-3.82 3.313-1.903 3.304 1.919z"/><path d="M108.297 169.376l-3.314 1.902-3.304-1.919.009-3.82 3.313-1.902 3.305 1.918z"/><path d="M101.679 169.36l-3.314 1.902-3.304-1.919.01-3.82 3.313-1.903 3.304 1.919zm9.941-5.707l-3.314 1.902-3.304-1.918.009-3.821 3.313-1.902 3.305 1.918zm-6.618-.016l-3.314 1.902-3.304-1.919.01-3.82 3.313-1.903 3.304 1.919z"/><path d="M108.325 157.914l-3.314 1.902-3.304-1.919.01-3.82 3.313-1.902 3.304 1.918z"/><path d="M114.942 157.93l-3.313 1.902-3.304-1.918.009-3.82 3.313-1.903 3.304 1.918zm9.913 5.756l-3.314 1.902-3.304-1.919.01-3.82 3.313-1.903 3.304 1.919z"/><path d="M118.237 163.67l-3.313 1.901-3.304-1.918.009-3.82 3.313-1.903 3.304 1.919zm3.323-5.724l-3.313 1.903-3.305-1.919.01-3.82 3.313-1.903 3.304 1.919zm6.59 11.479l-3.314 1.902-3.304-1.919.009-3.82 3.313-1.902 3.304 1.918z"/></g></g><path transform="translate(.141 .046) scale(.26458)" d="M358.945 629.682v-54.821l27.768.032c23.71.028 27.4.1 25.25.49-3.82.694-8.727 2.19-12.212 3.723-16.31 7.178-27.981 21.508-31.974 39.261-.671 2.982-.778 4.54-.778 11.315 0 6.782.106 8.332.78 11.327 2.376 10.565 7.057 19.28 14.461 26.924 7.83 8.082 17.388 13.38 28.313 15.692l3.928.832-27.768.023-27.768.024zm72.679 54.25c4.138-.735 10.203-2.72 14.107-4.619 16.722-8.132 28.292-24.15 30.745-42.563.604-4.535.218-14.391-.725-18.496-2.435-10.6-6.962-19.12-14.101-26.54-8.8-9.145-19.336-14.678-31.633-16.615-.491-.078 11.602-.163 26.875-.19l27.768-.048v109.643l-27.947-.032c-25.312-.03-27.677-.08-25.089-.54z" fill="#cecfd1" stroke-width=".714"/><circle cx="144.009" cy="236.335" r="14.552" clip-path="url(#c)" transform="translate(-32.266 -69.752)" fill="url(#d)" stroke-width=".265"/><circle cx="111.805" cy="166.665" r="14.553" fill="url(#e)" stroke-width=".134"/></g></pattern><clipPath clipPathUnits="userSpaceOnUse" id="b"><circle cx="111.61" cy="166.817" r="14.552" stroke-width=".265"/></clipPath><radialGradient xlink:href="#f" id="d" gradientUnits="userSpaceOnUse" gradientTransform="matrix(1.18853 .55798 -.41014 .8736 95.93 6.419)" cx="104.898" cy="194.813" fx="104.898" fy="194.813" r="14.552"/><linearGradient id="f"><stop offset="0" stop-color="#f0f0f0"/><stop offset=".463" stop-color="#acacae"/><stop offset=".632" stop-color="#8e8f91"/><stop offset=".729" stop-color="#6d6e70"/><stop offset=".967" stop-color="#515254"/><stop offset="1" stop-color="#515254"/></linearGradient><clipPath clipPathUnits="userSpaceOnUse" id="c"><path d="M142.853 250.813a14.744 14.744 0 0 1-5.812-1.741c-.72-.398-1.927-1.208-1.876-1.26.011-.01.167.064.346.167 1.069.613 2.436.919 3.417.765 1.652-.259 2.788-1.371 3.276-3.21.144-.54.147-.572.149-1.66.002-1.039-.007-1.15-.13-1.725a12 12 0 0 0-1.474-3.66c-1.376-2.222-3.392-3.794-5.432-4.234-.549-.118-1.491-.109-1.973.02-.702.188-1.272.534-1.8 1.092-.552.586-.911 1.33-1.125 2.329-.136.636-.148 1.984-.024 2.705.115.663.323 1.436.548 2.034.106.28.182.52.17.532-.026.025-.336-.632-.555-1.173-1.741-4.312-1.319-9.232 1.13-13.134 1.394-2.224 3.389-4.066 5.66-5.229a13.718 13.718 0 0 1 2.902-1.129c.797-.22.908-.204.217.032a9.28 9.28 0 0 0-1.992.969c-.58.381-1.433 1.243-1.734 1.75-1.682 2.841.437 6.027 4.67 7.024.931.219 1.528.285 2.576.286 1.814.002 3.208-.3 4.653-1.007 2.066-1.011 3.238-2.56 3.236-4.275 0-2.038-1.616-3.818-4.322-4.763-.665-.232-.347-.193.541.066a14.562 14.562 0 0 1 9.711 9.368c.28.84.453 1.567.605 2.53.137.87.147 3.118.018 3.993-.17 1.147-.485 2.358-.86 3.305-.267.675-.633 1.463-.665 1.43-.013-.013.01-.106.054-.206.304-.703.624-1.892.733-2.731.072-.55.031-1.967-.07-2.413-.412-1.82-1.421-2.985-2.933-3.383-.484-.128-1.431-.139-1.96-.023-1.345.294-2.539.976-3.726 2.13a11.354 11.354 0 0 0-2.651 3.986c-1.227 3.094-.81 6.242 1.011 7.637 1.245.954 2.934 1.028 4.699.208a7.74 7.74 0 0 0 .63-.328c.349-.214.323-.138-.045.133-.94.695-2.322 1.456-3.4 1.873-1.973.763-4.254 1.091-6.393.92z" fill="red" stroke-width=".047"/></clipPath><radialGradient xlink:href="#g" id="e" gradientUnits="userSpaceOnUse" gradientTransform="translate(18.066 -8.157) scale(1.00577)" cx="93.201" cy="173.818" fx="93.201" fy="173.818" r="14.47"/><linearGradient id="g"><stop offset="0" stop-opacity="0"/><stop offset=".751" stop-color="#626365" stop-opacity=".125"/><stop offset="1" stop-color="#494a4c"/></linearGradient><clipPath clipPathUnits="userSpaceOnUse" id="i"><circle cx="111.61" cy="166.817" r="14.552" stroke-width=".265"/></clipPath><clipPath clipPathUnits="userSpaceOnUse" id="j"><path d="M103.85 162.977a14.744 14.744 0 0 1-5.81-1.741c-.72-.398-1.928-1.208-1.877-1.26.011-.01.167.064.346.167 1.069.612 2.436.919 3.417.765 1.652-.259 2.788-1.372 3.276-3.21.144-.54.147-.572.148-1.66.002-1.04-.007-1.15-.129-1.725a12 12 0 0 0-1.474-3.66c-1.376-2.222-3.392-3.794-5.432-4.234-.549-.118-1.491-.109-1.973.02-.702.187-1.272.534-1.8 1.092-.552.586-.911 1.33-1.125 2.329-.136.636-.148 1.984-.024 2.705.115.663.323 1.436.548 2.033.105.28.182.52.17.533-.026.025-.336-.633-.555-1.173-1.742-4.313-1.319-9.232 1.13-13.134 1.394-2.224 3.389-4.067 5.66-5.229a13.718 13.718 0 0 1 2.902-1.129c.797-.22.908-.204.217.032a9.28 9.28 0 0 0-1.992.969c-.58.381-1.433 1.243-1.734 1.75-1.682 2.84.437 6.027 4.67 7.024.931.219 1.528.285 2.575.286 1.815.002 3.21-.3 4.654-1.008 2.065-1.01 3.238-2.559 3.236-4.274 0-2.038-1.616-3.818-4.322-4.763-.665-.232-.347-.193.541.066a14.562 14.562 0 0 1 9.711 9.368c.28.84.453 1.567.605 2.53.137.87.147 3.118.018 3.992-.17 1.147-.485 2.359-.86 3.306-.267.675-.633 1.463-.665 1.43-.013-.013.01-.106.054-.207.304-.702.624-1.891.733-2.73.072-.55.031-1.967-.07-2.413-.412-1.82-1.421-2.985-2.933-3.384-.484-.127-1.432-.138-1.96-.022-1.345.294-2.539.976-3.726 2.13a11.354 11.354 0 0 0-2.651 3.986c-1.227 3.094-.81 6.242 1.011 7.637 1.245.953 2.934 1.028 4.699.208.218-.101.502-.25.63-.329.348-.214.323-.137-.045.134a16.281 16.281 0 0 1-3.4 1.873c-1.973.763-4.254 1.09-6.394.92z" fill="red" stroke-width=".047"/></clipPath><radialGradient xlink:href="#h" id="k" gradientUnits="userSpaceOnUse" gradientTransform="matrix(.97256 .76088 -.78077 .99799 274.125 -125.816)" cx="25.115" cy="254.315" fx="25.115" fy="254.315" r="14.552"/><linearGradient id="h"><stop offset="0" stop-color="#eff0f2"/><stop offset=".384" stop-color="#acacae"/><stop offset=".584" stop-color="#8e8f91"/><stop offset=".773" stop-color="#6d6e70"/><stop offset="1" stop-color="#515254"/></linearGradient><radialGradient xlink:href="#g" id="l" gradientUnits="userSpaceOnUse" gradientTransform="translate(11.261 -26.321) scale(1.00577)" cx="93.201" cy="173.818" fx="93.201" fy="173.818" r="14.47"/><clipPath clipPathUnits="userSpaceOnUse" id="m"><circle cx="111.61" cy="166.817" r="14.552" stroke-width=".265"/></clipPath><clipPath clipPathUnits="userSpaceOnUse" id="n"><path d="M103.85 162.977a14.744 14.744 0 0 1-5.81-1.741c-.72-.398-1.928-1.208-1.877-1.26.011-.01.167.064.346.167 1.069.612 2.436.919 3.417.765 1.652-.259 2.788-1.372 3.276-3.21.144-.54.147-.572.148-1.66.002-1.04-.007-1.15-.129-1.725a12 12 0 0 0-1.474-3.66c-1.376-2.222-3.392-3.794-5.432-4.234-.549-.118-1.491-.109-1.973.02-.702.187-1.272.534-1.8 1.092-.552.586-.911 1.33-1.125 2.329-.136.636-.148 1.984-.024 2.705.115.663.323 1.436.548 2.033.105.28.182.52.17.533-.026.025-.336-.633-.555-1.173-1.742-4.313-1.319-9.232 1.13-13.134 1.394-2.224 3.389-4.067 5.66-5.229a13.718 13.718 0 0 1 2.902-1.129c.797-.22.908-.204.217.032a9.28 9.28 0 0 0-1.992.969c-.58.381-1.433 1.243-1.734 1.75-1.682 2.84.437 6.027 4.67 7.024.931.219 1.528.285 2.575.286 1.815.002 3.21-.3 4.654-1.008 2.065-1.01 3.238-2.559 3.236-4.274 0-2.038-1.616-3.818-4.322-4.763-.665-.232-.347-.193.541.066a14.562 14.562 0 0 1 9.711 9.368c.28.84.453 1.567.605 2.53.137.87.147 3.118.018 3.992-.17 1.147-.485 2.359-.86 3.306-.267.675-.633 1.463-.665 1.43-.013-.013.01-.106.054-.207.304-.702.624-1.891.733-2.73.072-.55.031-1.967-.07-2.413-.412-1.82-1.421-2.985-2.933-3.384-.484-.127-1.432-.138-1.96-.022-1.345.294-2.539.976-3.726 2.13a11.354 11.354 0 0 0-2.651 3.986c-1.227 3.094-.81 6.242 1.011 7.637 1.245.953 2.934 1.028 4.699.208.218-.101.502-.25.63-.329.348-.214.323-.137-.045.134a16.281 16.281 0 0 1-3.4 1.873c-1.973.763-4.254 1.09-6.394.92z" fill="red" stroke-width=".047"/></clipPath><radialGradient xlink:href="#h" id="o" gradientUnits="userSpaceOnUse" gradientTransform="matrix(.97256 .76088 -.78077 .99799 274.125 -125.816)" cx="25.115" cy="254.315" fx="25.115" fy="254.315" r="14.552"/><radialGradient xlink:href="#g" id="p" gradientUnits="userSpaceOnUse" gradientTransform="translate(11.261 -26.321) scale(1.00577)" cx="93.201" cy="173.818" fx="93.201" fy="173.818" r="14.47"/><clipPath clipPathUnits="userSpaceOnUse" id="q"><circle cx="111.61" cy="166.817" r="14.552" stroke-width=".265"/></clipPath><clipPath clipPathUnits="userSpaceOnUse" id="r"><path d="M103.85 162.977a14.744 14.744 0 0 1-5.81-1.741c-.72-.398-1.928-1.208-1.877-1.26.011-.01.167.064.346.167 1.069.612 2.436.919 3.417.765 1.652-.259 2.788-1.372 3.276-3.21.144-.54.147-.572.148-1.66.002-1.04-.007-1.15-.129-1.725a12 12 0 0 0-1.474-3.66c-1.376-2.222-3.392-3.794-5.432-4.234-.549-.118-1.491-.109-1.973.02-.702.187-1.272.534-1.8 1.092-.552.586-.911 1.33-1.125 2.329-.136.636-.148 1.984-.024 2.705.115.663.323 1.436.548 2.033.105.28.182.52.17.533-.026.025-.336-.633-.555-1.173-1.742-4.313-1.319-9.232 1.13-13.134 1.394-2.224 3.389-4.067 5.66-5.229a13.718 13.718 0 0 1 2.902-1.129c.797-.22.908-.204.217.032a9.28 9.28 0 0 0-1.992.969c-.58.381-1.433 1.243-1.734 1.75-1.682 2.84.437 6.027 4.67 7.024.931.219 1.528.285 2.575.286 1.815.002 3.21-.3 4.654-1.008 2.065-1.01 3.238-2.559 3.236-4.274 0-2.038-1.616-3.818-4.322-4.763-.665-.232-.347-.193.541.066a14.562 14.562 0 0 1 9.711 9.368c.28.84.453 1.567.605 2.53.137.87.147 3.118.018 3.992-.17 1.147-.485 2.359-.86 3.306-.267.675-.633 1.463-.665 1.43-.013-.013.01-.106.054-.207.304-.702.624-1.891.733-2.73.072-.55.031-1.967-.07-2.413-.412-1.82-1.421-2.985-2.933-3.384-.484-.127-1.432-.138-1.96-.022-1.345.294-2.539.976-3.726 2.13a11.354 11.354 0 0 0-2.651 3.986c-1.227 3.094-.81 6.242 1.011 7.637 1.245.953 2.934 1.028 4.699.208.218-.101.502-.25.63-.329.348-.214.323-.137-.045.134a16.281 16.281 0 0 1-3.4 1.873c-1.973.763-4.254 1.09-6.394.92z" fill="red" stroke-width=".047"/></clipPath><radialGradient xlink:href="#h" id="s" gradientUnits="userSpaceOnUse" gradientTransform="matrix(.97256 .76088 -.78077 .99799 274.125 -125.816)" cx="25.115" cy="254.315" fx="25.115" fy="254.315" r="14.552"/><radialGradient xlink:href="#g" id="t" gradientUnits="userSpaceOnUse" gradientTransform="translate(11.261 -26.321) scale(1.00577)" cx="93.201" cy="173.818" fx="93.201" fy="173.818" r="14.47"/><clipPath clipPathUnits="userSpaceOnUse" id="u"><circle cx="111.61" cy="166.817" r="14.552" stroke-width=".265"/></clipPath><clipPath clipPathUnits="userSpaceOnUse" id="v"><path d="M103.85 162.977a14.744 14.744 0 0 1-5.81-1.741c-.72-.398-1.928-1.208-1.877-1.26.011-.01.167.064.346.167 1.069.612 2.436.919 3.417.765 1.652-.259 2.788-1.372 3.276-3.21.144-.54.147-.572.148-1.66.002-1.04-.007-1.15-.129-1.725a12 12 0 0 0-1.474-3.66c-1.376-2.222-3.392-3.794-5.432-4.234-.549-.118-1.491-.109-1.973.02-.702.187-1.272.534-1.8 1.092-.552.586-.911 1.33-1.125 2.329-.136.636-.148 1.984-.024 2.705.115.663.323 1.436.548 2.033.105.28.182.52.17.533-.026.025-.336-.633-.555-1.173-1.742-4.313-1.319-9.232 1.13-13.134 1.394-2.224 3.389-4.067 5.66-5.229a13.718 13.718 0 0 1 2.902-1.129c.797-.22.908-.204.217.032a9.28 9.28 0 0 0-1.992.969c-.58.381-1.433 1.243-1.734 1.75-1.682 2.84.437 6.027 4.67 7.024.931.219 1.528.285 2.575.286 1.815.002 3.21-.3 4.654-1.008 2.065-1.01 3.238-2.559 3.236-4.274 0-2.038-1.616-3.818-4.322-4.763-.665-.232-.347-.193.541.066a14.562 14.562 0 0 1 9.711 9.368c.28.84.453 1.567.605 2.53.137.87.147 3.118.018 3.992-.17 1.147-.485 2.359-.86 3.306-.267.675-.633 1.463-.665 1.43-.013-.013.01-.106.054-.207.304-.702.624-1.891.733-2.73.072-.55.031-1.967-.07-2.413-.412-1.82-1.421-2.985-2.933-3.384-.484-.127-1.432-.138-1.96-.022-1.345.294-2.539.976-3.726 2.13a11.354 11.354 0 0 0-2.651 3.986c-1.227 3.094-.81 6.242 1.011 7.637 1.245.953 2.934 1.028 4.699.208.218-.101.502-.25.63-.329.348-.214.323-.137-.045.134a16.281 16.281 0 0 1-3.4 1.873c-1.973.763-4.254 1.09-6.394.92z" fill="red" stroke-width=".047"/></clipPath><radialGradient xlink:href="#h" id="w" gradientUnits="userSpaceOnUse" gradientTransform="matrix(.97256 .76088 -.78077 .99799 274.125 -125.816)" cx="25.115" cy="254.315" fx="25.115" fy="254.315" r="14.552"/><radialGradient xlink:href="#g" id="x" gradientUnits="userSpaceOnUse" gradientTransform="translate(11.261 -26.321) scale(1.00577)" cx="93.201" cy="173.818" fx="93.201" fy="173.818" r="14.47"/><clipPath clipPathUnits="userSpaceOnUse" id="y"><circle cx="111.61" cy="166.817" r="14.552" stroke-width=".265"/></clipPath><clipPath clipPathUnits="userSpaceOnUse" id="z"><path d="M103.85 162.977a14.744 14.744 0 0 1-5.81-1.741c-.72-.398-1.928-1.208-1.877-1.26.011-.01.167.064.346.167 1.069.612 2.436.919 3.417.765 1.652-.259 2.788-1.372 3.276-3.21.144-.54.147-.572.148-1.66.002-1.04-.007-1.15-.129-1.725a12 12 0 0 0-1.474-3.66c-1.376-2.222-3.392-3.794-5.432-4.234-.549-.118-1.491-.109-1.973.02-.702.187-1.272.534-1.8 1.092-.552.586-.911 1.33-1.125 2.329-.136.636-.148 1.984-.024 2.705.115.663.323 1.436.548 2.033.105.28.182.52.17.533-.026.025-.336-.633-.555-1.173-1.742-4.313-1.319-9.232 1.13-13.134 1.394-2.224 3.389-4.067 5.66-5.229a13.718 13.718 0 0 1 2.902-1.129c.797-.22.908-.204.217.032a9.28 9.28 0 0 0-1.992.969c-.58.381-1.433 1.243-1.734 1.75-1.682 2.84.437 6.027 4.67 7.024.931.219 1.528.285 2.575.286 1.815.002 3.21-.3 4.654-1.008 2.065-1.01 3.238-2.559 3.236-4.274 0-2.038-1.616-3.818-4.322-4.763-.665-.232-.347-.193.541.066a14.562 14.562 0 0 1 9.711 9.368c.28.84.453 1.567.605 2.53.137.87.147 3.118.018 3.992-.17 1.147-.485 2.359-.86 3.306-.267.675-.633 1.463-.665 1.43-.013-.013.01-.106.054-.207.304-.702.624-1.891.733-2.73.072-.55.031-1.967-.07-2.413-.412-1.82-1.421-2.985-2.933-3.384-.484-.127-1.432-.138-1.96-.022-1.345.294-2.539.976-3.726 2.13a11.354 11.354 0 0 0-2.651 3.986c-1.227 3.094-.81 6.242 1.011 7.637 1.245.953 2.934 1.028 4.699.208.218-.101.502-.25.63-.329.348-.214.323-.137-.045.134a16.281 16.281 0 0 1-3.4 1.873c-1.973.763-4.254 1.09-6.394.92z" fill="red" stroke-width=".047"/></clipPath><radialGradient xlink:href="#h" id="A" gradientUnits="userSpaceOnUse" gradientTransform="matrix(.97256 .76088 -.78077 .99799 274.125 -125.816)" cx="25.115" cy="254.315" fx="25.115" fy="254.315" r="14.552"/><radialGradient xlink:href="#g" id="B" gradientUnits="userSpaceOnUse" gradientTransform="translate(11.261 -26.321) scale(1.00577)" cx="93.201" cy="173.818" fx="93.201" fy="173.818" r="14.47"/></defs><path d="M0 14.552V.024h33.309v29.057H0z" fill="#cecfd1"/><g transform="translate(-88.345 -133.948)"><circle r="14.552" cy="148.5" cx="105"/><g clip-path="url(#i)" transform="translate(-6.61 -18.317)" fill="none" stroke="#1a1a1a" stroke-width=".597"><path d="M114.914 169.392l-3.313 1.902-3.304-1.918.009-3.82 3.313-1.903 3.304 1.918zm-3.323 5.723l-3.313 1.902-3.304-1.918.009-3.821 3.313-1.902 3.304 1.918zm9.913 5.755l-3.314 1.903-3.304-1.919.009-3.82 3.313-1.903 3.305 1.919z"/><path d="M114.886 180.854l-3.314 1.902-3.304-1.918.01-3.82 3.313-1.903 3.304 1.918zm9.94-5.706l-3.313 1.902-3.304-1.919.009-3.82 3.313-1.903 3.304 1.919z"/><path d="M118.209 175.131l-3.314 1.902-3.304-1.918.01-3.82 3.313-1.903 3.304 1.919zm3.323-5.723l-3.314 1.903-3.304-1.919.01-3.82 3.313-1.903 3.304 1.919zm-13.264 11.43l-3.313 1.902-3.304-1.918.009-3.821 3.313-1.902 3.304 1.918z"/><path d="M104.974 175.099L101.66 177l-3.304-1.919.01-3.82 3.313-1.903 3.304 1.919z"/><path d="M108.297 169.376l-3.314 1.902-3.304-1.919.009-3.82 3.313-1.902 3.305 1.918z"/><path d="M101.679 169.36l-3.314 1.902-3.304-1.919.01-3.82 3.313-1.903 3.304 1.919zm9.941-5.707l-3.314 1.902-3.304-1.918.009-3.821 3.313-1.902 3.305 1.918zm-6.618-.016l-3.314 1.902-3.304-1.919.01-3.82 3.313-1.903 3.304 1.919z"/><path d="M108.325 157.914l-3.314 1.902-3.304-1.919.01-3.82 3.313-1.902 3.304 1.918z"/><path d="M114.942 157.93l-3.313 1.902-3.304-1.918.009-3.82 3.313-1.903 3.304 1.918zm9.913 5.756l-3.314 1.902-3.304-1.919.01-3.82 3.313-1.903 3.304 1.919z"/><path d="M118.237 163.67l-3.313 1.901-3.304-1.918.009-3.82 3.313-1.903 3.304 1.919zm3.323-5.724l-3.313 1.903-3.305-1.919.01-3.82 3.313-1.903 3.304 1.919zm6.59 11.479l-3.314 1.902-3.304-1.919.009-3.82 3.313-1.902 3.304 1.918z"/></g></g><g clip-path="url(#j)" transform="translate(-88.364 -133.955)"><circle r="14.552" cy="148.5" cx="105" fill="url(#k)"/><circle r="14.553" cy="148.5" cx="105" fill="url(#l)"/></g><path d="M33.309 14.552V.024h33.309v29.057H33.309z" fill="#cecfd1"/><g transform="translate(-55.036 -133.948)"><circle r="14.552" cy="148.5" cx="105"/><g clip-path="url(#m)" transform="translate(-6.61 -18.317)" fill="none" stroke="#1a1a1a" stroke-width=".597"><path d="M114.914 169.392l-3.313 1.902-3.304-1.918.009-3.82 3.313-1.903 3.304 1.918zm-3.323 5.723l-3.313 1.902-3.304-1.918.009-3.821 3.313-1.902 3.304 1.918zm9.913 5.755l-3.314 1.903-3.304-1.919.009-3.82 3.313-1.903 3.305 1.919z"/><path d="M114.886 180.854l-3.314 1.902-3.304-1.918.01-3.82 3.313-1.903 3.304 1.918zm9.94-5.706l-3.313 1.902-3.304-1.919.009-3.82 3.313-1.903 3.304 1.919z"/><path d="M118.209 175.131l-3.314 1.902-3.304-1.918.01-3.82 3.313-1.903 3.304 1.919zm3.323-5.723l-3.314 1.903-3.304-1.919.01-3.82 3.313-1.903 3.304 1.919zm-13.264 11.43l-3.313 1.902-3.304-1.918.009-3.821 3.313-1.902 3.304 1.918z"/><path d="M104.974 175.099L101.66 177l-3.304-1.919.01-3.82 3.313-1.903 3.304 1.919z"/><path d="M108.297 169.376l-3.314 1.902-3.304-1.919.009-3.82 3.313-1.902 3.305 1.918z"/><path d="M101.679 169.36l-3.314 1.902-3.304-1.919.01-3.82 3.313-1.903 3.304 1.919zm9.941-5.707l-3.314 1.902-3.304-1.918.009-3.821 3.313-1.902 3.305 1.918zm-6.618-.016l-3.314 1.902-3.304-1.919.01-3.82 3.313-1.903 3.304 1.919z"/><path d="M108.325 157.914l-3.314 1.902-3.304-1.919.01-3.82 3.313-1.902 3.304 1.918z"/><path d="M114.942 157.93l-3.313 1.902-3.304-1.918.009-3.82 3.313-1.903 3.304 1.918zm9.913 5.756l-3.314 1.902-3.304-1.919.01-3.82 3.313-1.903 3.304 1.919z"/><path d="M118.237 163.67l-3.313 1.901-3.304-1.918.009-3.82 3.313-1.903 3.304 1.919zm3.323-5.724l-3.313 1.903-3.305-1.919.01-3.82 3.313-1.903 3.304 1.919zm6.59 11.479l-3.314 1.902-3.304-1.919.009-3.82 3.313-1.902 3.304 1.918z"/></g></g><g clip-path="url(#n)" transform="translate(-55.055 -133.955)"><circle r="14.552" cy="148.5" cx="105" fill="url(#o)"/><circle r="14.553" cy="148.5" cx="105" fill="url(#p)"/></g><g><path d="M16.656 43.689V29.16h33.309v29.057h-33.31z" fill="#cecfd1"/><g transform="translate(-71.69 -104.811)"><circle r="14.552" cy="148.5" cx="105"/><g clip-path="url(#q)" transform="translate(-6.61 -18.317)" fill="none" stroke="#1a1a1a" stroke-width=".597"><path d="M114.914 169.392l-3.313 1.902-3.304-1.918.009-3.82 3.313-1.903 3.304 1.918zm-3.323 5.723l-3.313 1.902-3.304-1.918.009-3.821 3.313-1.902 3.304 1.918zm9.913 5.755l-3.314 1.903-3.304-1.919.009-3.82 3.313-1.903 3.305 1.919z"/><path d="M114.886 180.854l-3.314 1.902-3.304-1.918.01-3.82 3.313-1.903 3.304 1.918zm9.94-5.706l-3.313 1.902-3.304-1.919.009-3.82 3.313-1.903 3.304 1.919z"/><path d="M118.209 175.131l-3.314 1.902-3.304-1.918.01-3.82 3.313-1.903 3.304 1.919zm3.323-5.723l-3.314 1.903-3.304-1.919.01-3.82 3.313-1.903 3.304 1.919zm-13.264 11.43l-3.313 1.902-3.304-1.918.009-3.821 3.313-1.902 3.304 1.918z"/><path d="M104.974 175.099L101.66 177l-3.304-1.919.01-3.82 3.313-1.903 3.304 1.919z"/><path d="M108.297 169.376l-3.314 1.902-3.304-1.919.009-3.82 3.313-1.902 3.305 1.918z"/><path d="M101.679 169.36l-3.314 1.902-3.304-1.919.01-3.82 3.313-1.903 3.304 1.919zm9.941-5.707l-3.314 1.902-3.304-1.918.009-3.821 3.313-1.902 3.305 1.918zm-6.618-.016l-3.314 1.902-3.304-1.919.01-3.82 3.313-1.903 3.304 1.919z"/><path d="M108.325 157.914l-3.314 1.902-3.304-1.919.01-3.82 3.313-1.902 3.304 1.918z"/><path d="M114.942 157.93l-3.313 1.902-3.304-1.918.009-3.82 3.313-1.903 3.304 1.918zm9.913 5.756l-3.314 1.902-3.304-1.919.01-3.82 3.313-1.903 3.304 1.919z"/><path d="M118.237 163.67l-3.313 1.901-3.304-1.918.009-3.82 3.313-1.903 3.304 1.919zm3.323-5.724l-3.313 1.903-3.305-1.919.01-3.82 3.313-1.903 3.304 1.919zm6.59 11.479l-3.314 1.902-3.304-1.919.009-3.82 3.313-1.902 3.304 1.918z"/></g></g><g clip-path="url(#r)" transform="translate(-71.708 -104.818)"><circle r="14.552" cy="148.5" cx="105" fill="url(#s)"/><circle r="14.553" cy="148.5" cx="105" fill="url(#t)"/></g></g><g><path d="M-16.653 43.689V29.16h33.309v29.057h-33.31z" fill="#cecfd1"/><g transform="translate(-104.998 -104.811)"><circle r="14.552" cy="148.5" cx="105"/><g clip-path="url(#u)" transform="translate(-6.61 -18.317)" fill="none" stroke="#1a1a1a" stroke-width=".597"><path d="M114.914 169.392l-3.313 1.902-3.304-1.918.009-3.82 3.313-1.903 3.304 1.918zm-3.323 5.723l-3.313 1.902-3.304-1.918.009-3.821 3.313-1.902 3.304 1.918zm9.913 5.755l-3.314 1.903-3.304-1.919.009-3.82 3.313-1.903 3.305 1.919z"/><path d="M114.886 180.854l-3.314 1.902-3.304-1.918.01-3.82 3.313-1.903 3.304 1.918zm9.94-5.706l-3.313 1.902-3.304-1.919.009-3.82 3.313-1.903 3.304 1.919z"/><path d="M118.209 175.131l-3.314 1.902-3.304-1.918.01-3.82 3.313-1.903 3.304 1.919zm3.323-5.723l-3.314 1.903-3.304-1.919.01-3.82 3.313-1.903 3.304 1.919zm-13.264 11.43l-3.313 1.902-3.304-1.918.009-3.821 3.313-1.902 3.304 1.918z"/><path d="M104.974 175.099L101.66 177l-3.304-1.919.01-3.82 3.313-1.903 3.304 1.919z"/><path d="M108.297 169.376l-3.314 1.902-3.304-1.919.009-3.82 3.313-1.902 3.305 1.918z"/><path d="M101.679 169.36l-3.314 1.902-3.304-1.919.01-3.82 3.313-1.903 3.304 1.919zm9.941-5.707l-3.314 1.902-3.304-1.918.009-3.821 3.313-1.902 3.305 1.918zm-6.618-.016l-3.314 1.902-3.304-1.919.01-3.82 3.313-1.903 3.304 1.919z"/><path d="M108.325 157.914l-3.314 1.902-3.304-1.919.01-3.82 3.313-1.902 3.304 1.918z"/><path d="M114.942 157.93l-3.313 1.902-3.304-1.918.009-3.82 3.313-1.903 3.304 1.918zm9.913 5.756l-3.314 1.902-3.304-1.919.01-3.82 3.313-1.903 3.304 1.919z"/><path d="M118.237 163.67l-3.313 1.901-3.304-1.918.009-3.82 3.313-1.903 3.304 1.919zm3.323-5.724l-3.313 1.903-3.305-1.919.01-3.82 3.313-1.903 3.304 1.919zm6.59 11.479l-3.314 1.902-3.304-1.919.009-3.82 3.313-1.902 3.304 1.918z"/></g></g><g clip-path="url(#v)" transform="translate(-105.017 -104.818)"><circle r="14.552" cy="148.5" cx="105" fill="url(#w)"/><circle r="14.553" cy="148.5" cx="105" fill="url(#x)"/></g></g><g><path d="M49.782 43.689V29.16h33.309v29.057H49.782z" fill="#cecfd1"/><g transform="translate(-38.563 -104.811)"><circle r="14.552" cy="148.5" cx="105"/><g clip-path="url(#y)" transform="translate(-6.61 -18.317)" fill="none" stroke="#1a1a1a" stroke-width=".597"><path d="M114.914 169.392l-3.313 1.902-3.304-1.918.009-3.82 3.313-1.903 3.304 1.918zm-3.323 5.723l-3.313 1.902-3.304-1.918.009-3.821 3.313-1.902 3.304 1.918zm9.913 5.755l-3.314 1.903-3.304-1.919.009-3.82 3.313-1.903 3.305 1.919z"/><path d="M114.886 180.854l-3.314 1.902-3.304-1.918.01-3.82 3.313-1.903 3.304 1.918zm9.94-5.706l-3.313 1.902-3.304-1.919.009-3.82 3.313-1.903 3.304 1.919z"/><path d="M118.209 175.131l-3.314 1.902-3.304-1.918.01-3.82 3.313-1.903 3.304 1.919zm3.323-5.723l-3.314 1.903-3.304-1.919.01-3.82 3.313-1.903 3.304 1.919zm-13.264 11.43l-3.313 1.902-3.304-1.918.009-3.821 3.313-1.902 3.304 1.918z"/><path d="M104.974 175.099L101.66 177l-3.304-1.919.01-3.82 3.313-1.903 3.304 1.919z"/><path d="M108.297 169.376l-3.314 1.902-3.304-1.919.009-3.82 3.313-1.902 3.305 1.918z"/><path d="M101.679 169.36l-3.314 1.902-3.304-1.919.01-3.82 3.313-1.903 3.304 1.919zm9.941-5.707l-3.314 1.902-3.304-1.918.009-3.821 3.313-1.902 3.305 1.918zm-6.618-.016l-3.314 1.902-3.304-1.919.01-3.82 3.313-1.903 3.304 1.919z"/><path d="M108.325 157.914l-3.314 1.902-3.304-1.919.01-3.82 3.313-1.902 3.304 1.918z"/><path d="M114.942 157.93l-3.313 1.902-3.304-1.918.009-3.82 3.313-1.903 3.304 1.918zm9.913 5.756l-3.314 1.902-3.304-1.919.01-3.82 3.313-1.903 3.304 1.919z"/><path d="M118.237 163.67l-3.313 1.901-3.304-1.918.009-3.82 3.313-1.903 3.304 1.919zm3.323-5.724l-3.313 1.903-3.305-1.919.01-3.82 3.313-1.903 3.304 1.919zm6.59 11.479l-3.314 1.902-3.304-1.919.009-3.82 3.313-1.902 3.304 1.918z"/></g></g><g clip-path="url(#z)" transform="translate(-38.582 -104.818)"><circle r="14.552" cy="148.5" cx="105" fill="url(#A)"/><circle r="14.553" cy="148.5" cx="105" fill="url(#B)"/></g></g></svg>